<svg width="428" height="600" viewBox="0 0 428 600" fill="none" xmlns="http://www.w3.org/2000/svg">
<rect width="428" height="600" fill="white"/>
<path d="M149.933 490.987C149.933 498.278 155.877 504.188 163.21 504.188C225.025 504.188 255.475 505.336 272.215 530.686C276.453 536.097 284.151 537.38 289.932 533.64C295.713 529.899 297.651 522.381 294.391 516.337C269.04 478.072 224.64 478.072 163.21 478.072C155.877 478.072 149.933 483.983 149.933 491.274" fill="url(#paint0_linear_181_373)"/>
<path d="M149.932 438.038C149.932 445.329 155.878 451.239 163.21 451.239C226.468 451.239 264.855 454.013 269.521 467.55C268.463 470.132 265 472.715 254.128 474.724C237.388 477.881 210.834 477.833 174.37 477.785H163.21C155.878 477.785 149.932 483.696 149.932 490.987C149.932 498.278 155.878 504.188 163.21 504.188H184.472C217.28 504.188 241.573 503.901 259.035 500.649C276.497 497.396 288.523 489.935 293.574 478.742C295.295 475.162 296.277 471.275 296.46 467.31C296.42 463.507 295.67 459.744 294.247 456.214C282.221 424.645 226.612 424.645 163.306 424.645C159.735 424.619 156.303 426.025 153.787 428.545C151.271 431.065 149.881 434.487 149.932 438.038Z" fill="url(#paint1_linear_181_373)"/>
<path d="M213.913 64C155.269 63.975 102.001 97.9668 77.5951 150.987C53.1896 204.007 62.133 266.311 100.482 310.425C109.619 322.813 116.162 336.898 119.724 351.847C126.506 377.053 144.642 390.972 170.715 390.972H195.633C210.064 390.972 222.09 388.198 266.587 319.943C276.296 304.394 284.05 287.72 289.677 270.295C299.01 240.64 292.227 222.464 284.867 212.611C275.928 200.86 261.922 194.012 247.105 194.148C235.415 194.148 223.63 201.657 214.394 210.219C208.291 216.177 203.635 223.44 200.78 231.456C199.133 236.063 198.287 240.916 198.279 245.805C197.8 254.771 204.221 262.643 213.143 264.029C221.417 264.029 228.296 253.841 228.296 245.853C228.234 241.292 227.505 236.765 226.131 232.413C231.293 225.867 238.851 221.62 247.153 220.598C253.575 220.506 259.681 223.365 263.701 228.347C269.089 235.617 269.377 247.479 264.615 262.69C259.604 277.491 253.041 291.727 245.036 305.164C233.295 324.712 219.386 342.89 203.57 359.356C200.529 363.034 195.945 365.101 191.159 364.952H170.763C156.909 364.952 149.068 358.925 145.412 345.389C136.416 311.908 121.696 294.736 120.686 293.588C85.0657 252.404 80.936 192.828 110.537 147.174C140.138 101.52 196.416 80.6662 248.846 95.9235C301.277 111.181 337.367 158.914 337.541 213.232C337.529 243.898 326.933 273.631 307.524 297.463C303.243 302.246 276.4 334.006 276.4 391.977C276.4 408.335 241.477 424.789 163.451 424.789C156.118 424.789 150.174 430.699 150.174 437.99C150.174 445.281 156.118 451.191 163.451 451.191C284.819 451.191 302.954 414.122 302.954 391.977C302.954 341.706 326.189 316.308 327.295 315.112L327.536 314.778C351.197 286.213 364.093 250.334 364 213.328C364.025 173.733 348.223 135.75 320.074 107.743C291.924 79.7358 253.735 64 213.913 64Z" fill="#0E879C"/>
<path d="M142.718 213.759C132.038 229.017 130.74 249.871 139.11 272.495C146.951 293.78 165.856 315.543 179.71 329.462C184.811 334.626 193.157 334.701 198.351 329.629C203.545 324.557 203.62 316.259 198.519 311.095C181.73 294.115 168.646 276.513 163.836 263.264C158.544 248.914 158.736 236.622 164.317 228.586C168.743 222.659 175.854 219.321 183.27 219.69C190.557 220.779 196.958 225.087 200.684 231.408C203.537 223.391 208.193 216.128 214.297 210.171C206.36 201.514 195.729 193.43 183.27 193.43C167.242 193.041 152.059 200.563 142.718 213.519" fill="url(#paint2_linear_181_373)"/>
<defs>
<linearGradient id="paint0_linear_181_373" x1="260.566" y1="535.777" x2="260.566" y2="513.238" gradientUnits="userSpaceOnUse">
<stop stop-color="#0E879C"/>
<stop offset="1" stop-color="#1B5266"/>
</linearGradient>
<linearGradient id="paint1_linear_181_373" x1="166.893" y1="473.119" x2="166.893" y2="424.645" gradientUnits="userSpaceOnUse">
<stop stop-color="#0E879C"/>
<stop offset="1" stop-color="#1B5266"/>
</linearGradient>
<linearGradient id="paint2_linear_181_373" x1="163.804" y1="278.714" x2="211.518" y2="229.432" gradientUnits="userSpaceOnUse">
<stop stop-color="#0E879C"/>
<stop offset="1" stop-color="#1B5266"/>
</linearGradient>
</defs>
</svg>
